<?xml version="1.0" encoding="iso-8859-1"?>
<!-- Generator: Adobe Illustrator 16.0.0, SVG Export Plug-In . SVG Version: 6.00 Build 0)  -->
<!DOCTYPE svg PUBLIC "-//W3C//DTD SVG 1.1//EN" "http://www.w3.org/Graphics/SVG/1.1/DTD/svg11.dtd">
<svg version="1.1" id="Layer_1" xmlns="http://www.w3.org/2000/svg" xmlns:xlink="http://www.w3.org/1999/xlink" x="0px" y="0px"
	 width="3829.698px" height="801.429px" viewBox="0 0 3829.698 801.429" style="enable-background:new 0 0 3829.698 801.429;"
	 xml:space="preserve">
<g>
	<g>
		<path style="fill:#FFFFFF;stroke:#FFFFFF;stroke-miterlimit:10;" d="M313.259,506.635c0,1.538-0.387,10.939-1.15,28.212
			c-0.774,17.272-1.152,33.78-1.152,49.514v19c-37.621-2.303-112.082-3.454-223.391-3.454c-13.439,0-26.682,0-39.727,0
			c-13.053,0-21.879,0-26.484,0h-5.758c-7.295,0-10.939-1.539-10.939-4.634c0-2.06,1.152-3.266,3.455-3.607
			c1.152,0,8.438-0.513,21.879-1.547c9.977-0.765,16.021-2.879,18.136-6.352c2.104-3.463,3.167-12.514,3.167-27.141V232.075
			c0-11.164-1.638-17.803-4.895-19.926c-3.266-2.114-13.728-3.176-31.378-3.176c-6.145,0-9.212-1.628-9.212-4.894
			c0-3.257,4.219-4.894,12.666-4.894h98.453c3.455,0,25.135,0,65.061,0c39.915,0,66.786,0,80.604,0
			c11.516,0,22.068-0.765,31.667-2.303c0.765,16.507,2.491,39.349,5.182,68.514l2.303,24.758c0.378,1.925,0.576,4.417,0.576,7.484
			c0,3.841-1.728,5.758-5.183,5.758c-4.228,0-7.295-4.822-9.211-14.484c-7.297-34.761-19.197-56.783-35.697-66.058
			c-12.288-6.945-44.53-10.427-96.725-10.427h-47.212v169.271h13.817c42.983,0,69.18-3.257,78.59-9.788
			c9.401-6.522,15.834-25.521,19.288-56.999c0.765-8.061,2.878-12.091,6.333-12.091c4.219,0,6.333,3.454,6.333,10.363
			s-0.387,17.084-1.151,30.515c-0.773,13.44-1.151,23.606-1.151,30.515c0,41.076,0.612,69.288,1.845,84.636
			c0.305,3.841,0.458,7.106,0.458,9.787c0,4.993-2.104,7.485-6.306,7.485c-2.682,0-4.489-1.629-5.443-4.895
			c-0.953-3.256-2.582-13.907-4.867-31.954c-3.059-22.643-12.423-36.649-28.085-42.029c-6.882-2.303-24.839-3.454-53.868-3.454
			h-25.792v192.876c84.437,0,133.951-1.701,148.543-5.119c25.333-5.686,39.727-29.948,43.181-72.787
			c0.766-9.473,3.258-14.214,7.485-14.214C311.334,494.544,313.259,498.575,313.259,506.635z"/>
	</g>
	<g>
		<path style="fill:#FFFFFF;stroke:#FFFFFF;stroke-miterlimit:10;" d="M863.974,555.538c0,9.986-0.576,26.484-1.727,49.515h-6.314
			c-2.305,0-7.863-0.387-16.67-1.151c-8.816-0.773-18.775-1.151-29.877-1.151l-239.061-1.728c-6.514,0-9.771-1.728-9.771-5.182
			c0-2.681,5.182-4.408,15.547-5.182c14.582-0.765,23.316-2.394,26.195-4.895c2.879-2.491,4.318-9.688,4.318-21.59V240.603
			c0-14.196-1.439-22.454-4.318-24.757c-2.879-2.303-13.152-3.455-30.803-3.455c-7.295,0-10.939-2.105-10.939-6.333
			c0-3.455,2.305-5.182,6.91-5.182h5.182c12.666,1.151,37.801,1.727,75.422,1.727c3.455,0,10.166-0.288,20.152-0.863
			c9.977-0.576,18.227-0.864,24.758-0.864h6.332c6.91,0,10.363,1.925,10.363,5.757c0,2.303-1.061,3.743-3.166,4.318
			c-2.113,0.576-8.734,1.062-19.863,1.439c-11.137,0.387-17.758,2.213-19.863,5.469c-2.113,3.266-3.166,13.341-3.166,30.227V587.78
			c10.363,0.387,24.756,0.576,43.18,0.576c44.91,0,76.576-2.304,95-6.909c18.424-4.606,30.893-13.242,37.424-25.909
			c6.521-12.666,10.363-29.741,11.514-51.241c0.359-4.984,2.574-7.485,6.621-7.485c4.795,0,7,2.879,6.621,8.637v14.394
			c0,0.773,0,2.501,0,5.182c0,2.69,0,5.38,0,8.061V555.538z"/>
	</g>
	
		<line style="fill:#FFFFFF;stroke:#FFFFFF;stroke-width:5.3278;stroke-miterlimit:10;" x1="432.051" y1="0" x2="432.051" y2="801.429"/>
	<g>
		<path style="fill:#FFFFFF;" d="M1260.278,572.048c-6.747,10.629-15.596,18.739-26.548,24.33s-23.407,8.387-37.361,8.387
			c-20.795,0-37.917-5.892-51.364-17.676s-20.171-26.732-20.171-44.848c0-18.113,6.724-33.109,20.171-44.986
			c13.447-11.875,30.569-17.814,51.364-17.814c12.938,0,24.676,2.426,35.212,7.278s19.038,11.714,25.509,20.587l-14.695,10.259
			c-4.899-6.745-11.346-11.944-19.339-15.596c-7.995-3.65-16.892-5.476-26.687-5.476c-15.159,0-27.705,4.322-37.64,12.962
			c-9.936,8.643-14.902,19.478-14.902,32.509c0,13.032,4.99,23.869,14.972,32.509c9.981,8.643,22.504,12.962,37.57,12.962
			c10.535,0,19.824-2.08,27.864-6.239c8.041-4.159,15.111-10.627,21.211-19.408L1260.278,572.048z"/>
		<path style="fill:#FFFFFF;" d="M1372.648,549.312v51.71h-18.577V482.907h81.517c12.106,0,21.579,2.911,28.419,8.734
			c6.839,5.823,10.26,13.911,10.26,24.261c0,8.411-2.704,15.689-8.11,21.834c-5.407,6.148-12.455,9.913-21.142,11.299l32.855,51.987
			h-20.102l-33.549-51.71H1372.648z M1372.648,531.983h62.939c6.377,0,11.251-1.386,14.625-4.159
			c3.373-2.772,5.061-6.745,5.061-11.922c0-5.175-1.688-9.126-5.061-11.853c-3.374-2.725-8.248-4.09-14.625-4.09h-62.939V531.983z"
			/>
		<path style="fill:#FFFFFF;" d="M1570.14,601.022V482.629h111.045v17.329h-92.468v29.529h60.721v17.052h-60.721v37.431h97.598
			v17.052H1570.14z"/>
		<path style="fill:#FFFFFF;" d="M1752.52,601.022l60.166-118.393h11.646l60.722,118.393h-19.825l-15.388-30.083h-62.523
			l-15.25,30.083H1752.52z M1795.356,555.273h46.304l-23.013-45.333L1795.356,555.273z"/>
		<path style="fill:#FFFFFF;" d="M1983.144,601.022V499.127h-49.908v-16.498h118.393v16.498h-50.046v101.895H1983.144z"/>
		<path style="fill:#FFFFFF;" d="M2132.667,601.022v-118.67h18.854v118.67H2132.667z"/>
		<path style="fill:#FFFFFF;" d="M2306.451,601.022h-9.565l-59.474-118.393h19.687l44.501,88.586l43.808-88.586h20.379
			L2306.451,601.022z"/>
		<path style="fill:#FFFFFF;" d="M2451.262,601.022V482.629h111.045v17.329h-92.468v29.529h60.721v17.052h-60.721v37.431h97.598
			v17.052H2451.262z"/>
		<path style="fill:#FFFFFF;" d="M2893.656,554.996v-17.052h48.799v35.768c-6.841,10.168-15.759,17.883-26.756,23.151
			c-11,5.268-23.754,7.902-38.263,7.902c-21.813,0-39.649-5.892-53.513-17.676s-20.795-26.732-20.795-44.848
			c0-18.113,6.978-33.109,20.934-44.986c13.954-11.875,31.747-17.814,53.374-17.814c13.677,0,25.807,2.357,36.391,7.07
			c10.582,4.713,19.385,11.645,26.41,20.795l-14.279,10.259c-4.991-6.561-11.763-11.714-20.31-15.458
			c-8.55-3.743-17.953-5.615-28.212-5.615c-16.175,0-29.438,4.298-39.788,12.893c-10.352,8.595-15.526,19.456-15.526,32.579
			c0,13.125,5.15,23.983,15.457,32.579c10.305,8.595,23.59,12.893,39.857,12.893c10.165,0,19.568-1.848,28.212-5.545
			c8.641-3.695,14.671-8.409,18.091-14.141v-12.754H2893.656z"/>
		<path style="fill:#FFFFFF;" d="M3057.598,549.312v51.71h-18.577V482.907h81.517c12.106,0,21.579,2.911,28.419,8.734
			c6.839,5.823,10.26,13.911,10.26,24.261c0,8.411-2.704,15.689-8.11,21.834c-5.407,6.148-12.455,9.913-21.142,11.299l32.855,51.987
			h-20.102l-33.549-51.71H3057.598z M3057.598,531.983h62.939c6.377,0,11.251-1.386,14.625-4.159
			c3.373-2.772,5.061-6.745,5.061-11.922c0-5.175-1.688-9.126-5.061-11.853c-3.374-2.725-8.248-4.09-14.625-4.09h-62.939V531.983z"
			/>
		<path style="fill:#FFFFFF;" d="M3317.335,604.765c-21.072,0-38.401-5.961-51.987-17.884s-20.379-26.895-20.379-44.917
			c0-18.113,6.77-33.064,20.31-44.848c13.539-11.784,30.892-17.676,52.057-17.676c21.35,0,38.794,5.87,52.334,17.606
			c13.538,11.738,20.31,26.71,20.31,44.917c0,18.115-6.793,33.112-20.379,44.986
			C3356.014,598.828,3338.592,604.765,3317.335,604.765z M3317.335,587.436c15.805,0,28.697-4.274,38.679-12.824
			c9.981-8.547,14.973-19.43,14.973-32.648c0-13.123-5.015-23.983-15.042-32.579c-10.029-8.595-22.898-12.893-38.609-12.893
			c-15.713,0-28.536,4.276-38.471,12.824c-9.936,8.55-14.902,19.432-14.902,32.648c0,13.218,4.967,24.101,14.902,32.648
			C3288.799,583.162,3301.622,587.436,3317.335,587.436z"/>
		<path style="fill:#FFFFFF;" d="M3482.802,482.907h18.577v75.832c0,11.368,2.68,19.041,8.04,23.013
			c5.359,3.975,15.988,5.961,31.886,5.961c15.988,0,26.663-1.986,32.024-5.961c5.359-3.973,8.041-11.645,8.041-23.013v-75.832
			h18.438v80.685c0,14.511-4.599,25.001-13.794,31.469c-9.197,6.468-24.191,9.705-44.986,9.705c-20.703,0-35.583-3.188-44.64-9.566
			c-9.059-6.377-13.586-16.913-13.586-31.608V482.907z"/>
		<path style="fill:#FFFFFF;" d="M3721.744,549.312v51.71h-18.577V482.629h86.091c12.2,0,21.696,2.89,28.489,8.665
			c6.793,5.777,10.189,13.887,10.189,24.33c0,9.891-3.375,17.977-10.12,24.261c-6.747,6.286-15.62,9.427-26.617,9.427H3721.744z
			 M3721.744,531.983h67.514c6.284,0,11.112-1.386,14.487-4.159c3.373-2.772,5.061-6.745,5.061-11.922
			c0-5.082-1.618-9.011-4.853-11.784c-3.236-2.773-7.856-4.159-13.863-4.159h-68.346V531.983z"/>
	</g>
</g>
</svg>
