<?xml version="1.0" encoding="iso-8859-1"?>
<!-- Generator: Adobe Illustrator 16.0.0, SVG Export Plug-In . SVG Version: 6.00 Build 0)  -->
<!DOCTYPE svg PUBLIC "-//W3C//DTD SVG 1.1//EN" "http://www.w3.org/Graphics/SVG/1.1/DTD/svg11.dtd">
<svg version="1.1" id="Layer_1" xmlns="http://www.w3.org/2000/svg" xmlns:xlink="http://www.w3.org/1999/xlink" x="0px" y="0px"
	 width="691.519px" height="363.728px" viewBox="0 0 691.519 363.728" style="enable-background:new 0 0 691.519 363.728;"
	 xml:space="preserve">
<g>
	<g>
		<g>
			<path style="fill:#808285;" d="M0.602,301.377h40.333V52.838H0.602v-5.087h114.095v5.087H77.271v115.549h3.634L190.639,52.838
				H152.85v-5.087h75.215v5.087h-30.159l-92.293,97.744l131.899,150.795h23.982v5.086H156.483v-5.086h32.703L80.178,173.473h-2.907
				v127.904h37.426v5.086H0.602V301.377z"/>
			<path style="fill:#808285;" d="M293.833,47.751h109.372v5.087h-37.79l74.853,210.748h0.727l48.327-134.078l-27.615-76.67h-30.522
				v-5.087h109.008v5.087h-39.606l74.853,210.748h0.727L652.47,52.838h-38.88v-5.087h77.76v5.087h-32.703l-94.11,259.076h-9.084
				L492.955,137.5h-0.727l-63.225,174.414h-9.811L326.536,52.838h-32.703V47.751z"/>
		</g>
	</g>
	<g>
		<path style="fill:#808285;" d="M275.984,0.138h7.268v363.36h-7.268V0.138z"/>
	</g>
</g>
</svg>
