<?xml version="1.0" encoding="iso-8859-1"?>
<!-- Generator: Adobe Illustrator 16.0.0, SVG Export Plug-In . SVG Version: 6.00 Build 0)  -->
<!DOCTYPE svg PUBLIC "-//W3C//DTD SVG 1.1//EN" "http://www.w3.org/Graphics/SVG/1.1/DTD/svg11.dtd">
<svg version="1.1" id="Layer_1" xmlns="http://www.w3.org/2000/svg" xmlns:xlink="http://www.w3.org/1999/xlink" x="0px" y="0px"
	 width="740.939px" height="212.921px" viewBox="0 0 740.939 212.921" style="enable-background:new 0 0 740.939 212.921;"
	 xml:space="preserve">
<g>
	<g>
		<g>
			<path style="fill:#231F20;" d="M0.168,209.385h28.034V36.634H0.168v-3.536h79.304v3.536H53.458v80.314h2.525l76.273-80.314
				h-26.266v-3.536h52.28v3.536h-20.962l-64.15,67.939l91.68,104.812h16.669v3.536h-72.99v-3.536h22.73l-75.768-88.901h-2.02v88.901
				h26.014v3.536H0.168V209.385z"/>
			<path style="fill:#231F20;" d="M203.984,33.098h76.021v3.536h-26.267l52.027,146.484h0.505l33.59-93.194l-19.194-53.29h-21.215
				v-3.536h75.768v3.536h-27.529l52.027,146.484h0.505l53.038-146.484h-27.024v-3.536h54.048v3.536h-22.73l-65.413,180.075h-6.314
				L342.387,95.48h-0.505l-43.945,121.229h-6.819L226.714,36.634h-22.73V33.098z"/>
		</g>
	</g>
	<rect x="470.344" y="130.245" style="fill:#231F20;" width="269.364" height="82.676"/>
	<g>
		<path style="fill:#FFFFFF;" d="M526.417,203.247l-13.043-31.252h-9.805v31.252h-1.926v-61.979h12.128
			c1.511,0,3.11,0.219,4.798,0.656c1.687,0.438,3.228,1.227,4.625,2.364c1.395,1.138,2.559,2.685,3.489,4.64
			c0.93,1.956,1.396,4.451,1.396,7.484c0,2.86-0.394,5.268-1.182,7.223c-0.788,1.955-1.795,3.545-3.02,4.771
			c-1.226,1.226-2.598,2.116-4.115,2.67c-1.518,0.556-3.006,0.831-4.464,0.831l13.218,31.34H526.417z M526.33,156.413
			c0-2.567-0.365-4.712-1.094-6.434c-0.73-1.721-1.693-3.093-2.889-4.115c-1.197-1.02-2.583-1.75-4.158-2.188
			s-3.182-0.657-4.814-0.657h-9.805v27.226h10.417c4.027,0,7.091-1.255,9.191-3.765C525.279,163.972,526.33,160.615,526.33,156.413z
			"/>
		<path style="fill:#FFFFFF;" d="M540.16,203.247v-61.979h22.323v1.751h-20.397v27.226h19.171v1.75h-19.171v29.501h21.01v1.751
			H540.16z"/>
		<path style="fill:#FFFFFF;" d="M600.824,156.676c0,2.569-0.35,4.858-1.05,6.872c-0.701,2.014-1.65,3.707-2.845,5.077
			c-1.197,1.372-2.613,2.423-4.246,3.151c-1.635,0.73-3.385,1.094-5.252,1.094h-10.768v30.377h-1.926v-61.979h12.168
			c1.576,0,3.18,0.25,4.815,0.744c1.633,0.496,3.121,1.328,4.464,2.495c1.342,1.168,2.451,2.743,3.327,4.728
			S600.824,153.7,600.824,156.676z M598.898,156.718c0-2.516-0.336-4.638-1.007-6.365c-0.671-1.727-1.562-3.133-2.67-4.216
			c-1.109-1.083-2.335-1.872-3.677-2.37c-1.343-0.498-2.685-0.747-4.027-0.747h-10.855v28.101h11.118
			c1.342,0,2.684-0.277,4.027-0.834c1.342-0.556,2.539-1.42,3.589-2.592c1.051-1.17,1.896-2.662,2.539-4.478
			C598.577,161.403,598.898,159.236,598.898,156.718z"/>
		<path style="fill:#FFFFFF;" d="M646.694,172.258c0,4.728-0.425,9.075-1.27,13.044c-0.848,3.969-2.072,7.383-3.678,10.242
			s-3.56,5.092-5.864,6.696c-2.306,1.604-4.946,2.407-7.922,2.407c-2.977,0-5.618-0.803-7.922-2.407
			c-2.306-1.604-4.261-3.837-5.865-6.696c-1.606-2.859-2.832-6.273-3.677-10.242c-0.847-3.969-1.27-8.316-1.27-13.044
			s0.394-9.073,1.182-13.044c0.788-3.967,1.969-7.381,3.545-10.242c1.576-2.857,3.53-5.09,5.865-6.696
			c2.333-1.604,5.047-2.407,8.142-2.407c2.976,0,5.616,0.803,7.922,2.407c2.305,1.606,4.259,3.839,5.864,6.696
			c1.605,2.861,2.83,6.275,3.678,10.242C646.27,163.185,646.694,167.53,646.694,172.258z M644.769,172.258
			c0-4.259-0.365-8.257-1.095-11.993c-0.73-3.734-1.795-6.973-3.195-9.717c-1.401-2.742-3.151-4.916-5.252-6.521
			c-2.101-1.604-4.523-2.407-7.266-2.407c-2.86,0-5.34,0.803-7.441,2.407c-2.101,1.605-3.852,3.779-5.252,6.521
			c-1.401,2.744-2.438,5.982-3.108,9.717c-0.671,3.736-1.006,7.734-1.006,11.993c0,4.261,0.335,8.244,1.006,11.949
			c0.67,3.707,1.707,6.946,3.108,9.717c1.4,2.772,3.151,4.961,5.252,6.565c2.101,1.606,4.581,2.407,7.441,2.407
			c2.801,0,5.252-0.801,7.353-2.407c2.102-1.604,3.852-3.793,5.252-6.565c1.401-2.771,2.451-6.01,3.152-9.717
			C644.417,180.502,644.769,176.519,644.769,172.258z"/>
		<path style="fill:#FFFFFF;" d="M684.335,203.247l-13.043-31.252h-9.805v31.252h-1.926v-61.979h12.129
			c1.511,0,3.109,0.219,4.798,0.656c1.687,0.438,3.228,1.227,4.624,2.364c1.396,1.138,2.56,2.685,3.49,4.64
			c0.93,1.956,1.396,4.451,1.396,7.484c0,2.86-0.395,5.268-1.182,7.223c-0.789,1.955-1.795,3.545-3.021,4.771
			s-2.598,2.116-4.114,2.67c-1.519,0.556-3.007,0.831-4.465,0.831l13.219,31.34H684.335z M684.247,156.413
			c0-2.567-0.365-4.712-1.094-6.434c-0.73-1.721-1.693-3.093-2.889-4.115c-1.197-1.02-2.582-1.75-4.158-2.188
			s-3.182-0.657-4.814-0.657h-9.805v27.226h10.418c4.026,0,7.09-1.255,9.191-3.765C683.197,163.972,684.247,160.615,684.247,156.413
			z"/>
		<path style="fill:#FFFFFF;" d="M703.943,143.02v60.228h-1.927V143.02h-12.255v-1.751h26.437v1.751H703.943z"/>
	</g>
	<g>
		<path style="fill:#231F20;" d="M191.577,0h5.051v252.56h-5.051V0z"/>
	</g>
</g>
<g>
	<path style="fill:#231F20;" d="M4.638,8.312v19.698h-0.63V8.312H0V7.74h8.646v0.572H4.638z"/>
	<path style="fill:#231F20;" d="M21.215,28.011V17.789h-9.391v10.222h-0.63V7.74h0.63v9.534h9.391V7.74h0.63v20.271H21.215z"/>
	<path style="fill:#231F20;" d="M26.941,28.011V7.74h7.301v0.572h-6.671v8.904h6.27v0.572h-6.27v9.648h6.871v0.573H26.941z"/>
</g>
</svg>
